<?xml version="1.0" encoding="utf-8"?>
<!-- Generator: Adobe Illustrator 23.0.1, SVG Export Plug-In . SVG Version: 6.00 Build 0)  -->
<svg version="1.1" id="Capa_1" xmlns="http://www.w3.org/2000/svg" xmlns:xlink="http://www.w3.org/1999/xlink" x="0px" y="0px"
	 viewBox="0 0 512 512" style="enable-background:new 0 0 512 512;" xml:space="preserve">
<style type="text/css">
	.st0{fill:#FFFFFF;}
</style>
<g>
	<g>
		<g>
			<path class="st0" d="M511.9,195.7c-0.1-0.6-0.2-1.2-0.4-1.7c-0.1-0.5-0.3-1-0.5-1.5c-0.2-0.5-0.5-0.9-0.9-1.3
				c-0.3-0.5-0.7-0.9-1.1-1.3c-0.1-0.1-0.2-0.3-0.3-0.4l-82.1-63.7V59.7c0-14.1-11.5-25.6-25.6-25.6h-92.5l-37-28.7
				c-9.1-7.1-22-7.1-31.1,0l-37,28.7h-92.5c-14.1,0-25.6,11.5-25.6,25.6v66.1l-82,63.7c-0.1,0.1-0.2,0.3-0.3,0.4
				c-0.4,0.4-0.8,0.8-1.1,1.3c-0.3,0.4-0.6,0.8-0.9,1.3c-0.2,0.5-0.4,1-0.5,1.5c-0.2,0.6-0.3,1.1-0.3,1.7c0,0.2-0.1,0.3-0.1,0.5
				v290.2c0,5.4,1.8,10.7,5,15.1c0.1,0.1,0.1,0.2,0.1,0.2c0.1,0.1,0.2,0.1,0.3,0.2c4.8,6.3,12.3,10,20.2,10.1h460.8
				c8,0,15.4-3.8,20.2-10.1c0.1-0.1,0.2-0.1,0.2-0.2c0.1-0.1,0.1-0.2,0.1-0.2c3.2-4.4,5-9.6,5-15.1V196.2
				C512,196.1,511.9,195.9,511.9,195.7z M250.9,18.8c3-2.4,7.2-2.4,10.2,0l19.7,15.3h-49.5L250.9,18.8z M27.7,494.9l223.1-173.3
				c3-2.4,7.2-2.4,10.2,0l223.2,173.3H27.7z M494.9,481.6L271.5,308.1c-9.1-7.1-22-7.1-31.1,0L17,481.6V209.2l139.8,108.6
				c3.7,2.9,9.1,2.2,12-1.5s2.2-9.1-1.5-12L25.3,194l60-46.7v65.9c0,4.7,3.8,8.5,8.5,8.5c4.7,0,8.5-3.8,8.5-8.5V59.7
				c0-4.7,3.8-8.5,8.5-8.5H401c4.7,0,8.5,3.8,8.5,8.5v153.6c0,4.7,3.8,8.5,8.5,8.5s8.5-3.8,8.5-8.5v-65.9l60,46.7L344.4,304.5
				c-2.4,1.9-3.7,4.9-3.3,7.9s2.4,5.6,5.3,6.8c2.8,1.1,6.1,0.7,8.5-1.2l140.1-108.8L494.9,481.6L494.9,481.6z"/>
			<path class="st0" d="M358.4,204.8v-34.1c0-56.6-45.8-102.4-102.4-102.4s-102.4,45.8-102.4,102.4S199.4,273,256,273
				c4.7,0,8.5-3.8,8.5-8.5s-3.8-8.5-8.5-8.5c-47.1,0-85.3-38.2-85.3-85.3s38.2-85.3,85.3-85.3s85.3,38.2,85.3,85.3v34.1
				c0,9.4-7.6,17.1-17.1,17.1s-17.1-7.6-17.1-17.1v-34.1c0-4.7-3.8-8.5-8.5-8.5s-8.5,3.8-8.5,8.5c0,18.9-15.3,34.1-34.1,34.1
				s-34.1-15.3-34.1-34.1s15.3-34.1,34.1-34.1c4.7,0,8.5-3.8,8.5-8.5s-3.8-8.5-8.5-8.5c-22.9-0.1-43.1,15.1-49.4,37.2
				s2.8,45.6,22.3,57.6s44.6,9.6,61.5-5.8c1.9,18,17.5,31.5,35.7,30.5C344.3,237.9,358.4,222.9,358.4,204.8z"/>
		</g>
	</g>
</g>
</svg>
