<?xml version="1.0" encoding="utf-8"?>
<!-- Generator: Adobe Illustrator 23.0.0, SVG Export Plug-In . SVG Version: 6.00 Build 0)  -->
<svg version="1.1" id="Livello_1" xmlns="http://www.w3.org/2000/svg" xmlns:xlink="http://www.w3.org/1999/xlink" x="0px" y="0px"
	 viewBox="0 0 512 512" style="enable-background:new 0 0 512 512;" xml:space="preserve">
<style type="text/css">
	.st0{fill:#FFFFFF;}
</style>
<path class="st0" d="M437,0H75C33.6,0,0,33.6,0,75v362c0,41.4,33.6,75,75,75h362c41.4,0,75-33.6,75-75V75C512,33.6,478.4,0,437,0z
	 M257,390c-74.4,0-135-60.6-135-135s60.6-135,135-135s135,60.6,135,135S331.4,390,257,390z M407,150c-24.8,0-45-20.2-45-45
	s20.2-45,45-45s45,20.2,45,45S431.8,150,407,150z"/>
<path class="st0" d="M407,90c-8.3,0-15,6.7-15,15s6.7,15,15,15s15-6.7,15-15S415.3,90,407,90z"/>
<path class="st0" d="M257,150c-57.9,0-105,47.1-105,105s47.1,105,105,105s105-47.1,105-105S314.9,150,257,150z"/>
</svg>
