<?xml version="1.0" encoding="utf-8"?>
<!-- Generator: Adobe Illustrator 23.0.0, SVG Export Plug-In . SVG Version: 6.00 Build 0)  -->
<svg version="1.1" id="Livello_1" xmlns="http://www.w3.org/2000/svg" xmlns:xlink="http://www.w3.org/1999/xlink" x="0px" y="0px"
	 viewBox="0 0 512 512" style="enable-background:new 0 0 512 512;" xml:space="preserve">
<style type="text/css">
	.st0{fill:#FFFFFF;}
</style>
<path class="st0" d="M191,466c-22.1,0-44.9-1.8-67.9-5.4c-40.4-6.3-81.3-27.5-92.8-33.8L0,410.3l32.8-10.8
	c35.9-11.8,57.7-19.1,84.8-30.6c-27.1-13.1-47.9-36.7-58-67.2L52,278.5l6.3,1c-5.9-6-10.6-12.1-14.3-17.6
	c-12.9-19.6-19.8-43.6-18.3-64.2l1.4-20.2l12.1,4.7c-5.1-9.7-8.8-20-11-30.8C23,125,27.4,97,40.7,72.5l10.6-19.4l14.1,17
	c44.7,53.6,101.2,85.5,168.4,94.8c-2.7-18.9-0.7-37.1,6.1-53.5c7.9-19,22-35.2,40.7-46.7c20.8-12.8,46-19,71-17.4
	c26.5,1.6,50.6,11.6,69.7,28.7c9.3-2.4,16.2-5,25.5-8.5c5.6-2.1,11.9-4.5,19.9-7.2l29.3-10.1l-19.1,54.5c1.3-0.1,2.6-0.2,3.9-0.3
	L512,103l-18.5,25.2c-1.1,1.4-1.3,1.9-1.7,2.4c-1.5,2.2-3.3,5-28.7,38.9c-6.3,8.5-9.5,19.5-8.9,31.1c2.2,44-3.1,83.8-16,118.2
	C426,351.4,407.1,379.4,382,402c-31,27.9-70.6,47.1-117.6,56.8C241.4,463.6,216.6,466,191,466z"/>
</svg>
