<?xml version="1.0" encoding="utf-8"?>
<!-- Generator: Adobe Illustrator 23.0.0, SVG Export Plug-In . SVG Version: 6.00 Build 0)  -->
<svg version="1.1" id="Livello_1" xmlns="http://www.w3.org/2000/svg" xmlns:xlink="http://www.w3.org/1999/xlink" x="0px" y="0px"
	 viewBox="0 0 962.3 766" style="enable-background:new 0 0 962.3 766;" xml:space="preserve">
<style type="text/css">
	.st0{fill:#F87203;}
</style>
<title>Risorsa 2</title>
<g>
	<g id="Livello_1-2">
		<path class="st0" d="M962.1,403c-6.2-25.1-18.2-47.4-34.4-67.5c-28.5-35.3-65.6-60.3-102.6-85.3c-56.3-38-113.2-75.4-169.8-112.9
			c-15.1-10-26.4-23.3-31-40.8c-6.1-23.3-10.6-47-16.1-70.5c-1.1-4.6-3.5-8.9-5.3-13.3c-3.5,3.1-7.9,5.6-10.3,9.4
			C580.9,40.6,565,52.1,543,50c-23.6-2.2-47-6.5-70.4-10.6c-15.2-2.7-16.8-8.3-7.4-20.5c4-5.2,7-11.1,10.5-16.7l-3-2.2
			c-6.3,3.3-12.8,6.4-18.9,10.1c-46.3,28.2-94.6,52.3-148.3,62.3c-29.2,5.4-59.1,6.4-88.6,10.6c-47.9,6.8-95.6,15-143.5,21.6
			c-26.8,3.7-51.7,10.9-73.4,29.1c89.4-7.5,141.6,53,154.6,105.1c-2.8,1.3-6.1,2.3-8.7,4.1c-32.1,21.9-39.7,27.3-27.7,61.3
			c8.8,24.9,22.7,48,34.2,72c2.5,5.2,6.8,10.8,6.4,15.9c-2.3,32.6,8.9,61.9,21.8,90.6c9.9,22,15.5,44.5,9.6,68.1
			c-5.4,21.6-10.7,43.9-20.7,63.6c-23.9,46.8-50.6,92.2-76.1,138.3c-2.2,3.9-4,8-6,12l2.9,1.4c11-18.6,21.9-37.3,32.9-55.9
			c26-44.3,51.4-89,78.5-132.6c5.4-8.8,16.8-15.5,26.8-19.5c35.9-14,72.8-25.4,108.5-39.6c53.3-21.3,106.9-41.3,164.5-47.7
			c38.9-4.3,77.8-7.8,116.6-12.9c24.6-3.2,29.6-11.2,28.6-36c-0.6-13.5-1-27.2,0.6-40.6c2.9-23.4,11.5-31.4,33.8-34
			c50.7-5.7,101-2.1,151,6.8c43.8,7.5,84.6,27.4,117.5,57.3c2.8,2.5,7.3,3,10.9,4.5C961,411.6,963.1,406.9,962.1,403z M453.9,326.5
			C401.1,418,323.2,471.8,279.9,446.8s-35.7-119.4,17.1-210.9S427.6,90.7,471,115.7S506.7,235.1,453.9,326.5z"/>
	</g>
</g>
</svg>
