<svg xmlns="http://www.w3.org/2000/svg" viewBox="0 0 962.35 765.98"><defs><style>.cls-1{fill:#fff;}</style></defs><title>Risorsa 2</title><g id="Livello_2" data-name="Livello 2"><g id="Livello_1-2" data-name="Livello 1"><path class="cls-1" d="M962.09,403c-6.22-25.12-18.21-47.41-34.43-67.53-28.48-35.31-65.57-60.3-102.56-85.26-56.35-38-113.15-75.38-169.83-112.94-15.12-10-26.42-23.26-31-40.76-6.12-23.3-10.63-47-16.14-70.48-1.08-4.58-3.53-8.85-5.35-13.26-3.49,3.1-7.91,5.62-10.3,9.42C580.91,40.56,565,52.08,543,50c-23.61-2.21-47.05-6.47-70.43-10.58-15.21-2.67-16.76-8.31-7.4-20.54,4-5.2,7-11.11,10.52-16.7L472.72,0c-6.31,3.35-12.81,6.39-18.91,10.1C407.47,38.31,359.2,62.43,305.47,72.42c-29.16,5.42-59.12,6.4-88.55,10.55C169,89.72,121.32,98,73.39,104.53,46.56,108.21,21.72,115.47,0,133.59c89.42-7.49,141.63,53,154.64,105.06-2.84,1.33-6.07,2.33-8.74,4.15-32.09,21.9-39.7,27.25-27.74,61.32,8.75,24.93,22.67,48,34.17,72,2.5,5.21,6.75,10.8,6.38,15.94-2.32,32.65,8.94,61.89,21.81,90.61,9.85,22,15.51,44.55,9.64,68.08-5.39,21.61-10.67,43.94-20.68,63.56-23.91,46.83-50.59,92.24-76.11,138.25-2.17,3.92-4,8-6,12L90.24,766q16.44-27.94,32.87-55.87c26-44.3,51.38-89,78.52-132.58,5.45-8.76,16.75-15.53,26.82-19.47,35.87-14,72.77-25.38,108.52-39.64,53.34-21.28,106.88-41.31,164.47-47.66,38.87-4.29,77.83-7.84,116.58-12.94,24.59-3.23,29.62-11.22,28.57-36-.58-13.51-1-27.22.61-40.57,2.87-23.41,11.46-31.43,33.79-34,50.67-5.72,101-2.08,151,6.76a232.89,232.89,0,0,1,117.45,57.32c2.75,2.48,7.25,3,10.93,4.47C961,411.58,963.06,406.92,962.09,403ZM453.92,326.55C401.14,418,323.21,471.79,279.86,446.76s-35.71-119.43,17.08-210.85S427.65,90.67,471,115.69,506.7,235.12,453.92,326.55Z"/></g></g></svg>