<?xml version="1.0" encoding="utf-8"?>
<!-- Generator: Adobe Illustrator 23.0.1, SVG Export Plug-In . SVG Version: 6.00 Build 0)  -->
<svg version="1.1" id="Capa_1" xmlns="http://www.w3.org/2000/svg" xmlns:xlink="http://www.w3.org/1999/xlink" x="0px" y="0px"
	 viewBox="0 0 24.8 24.8" style="enable-background:new 0 0 24.8 24.8;" xml:space="preserve">
<style type="text/css">
	.st0{fill:#FFFFFF;}
</style>
<g>
	<path class="st0" d="M0,3.9c0-1.1,0.9-2,2-2h20.8c1.1,0,2,0.9,2,2s-0.9,2-2,2H2C0.9,5.9,0,5,0,3.9z M22.8,10.4H2c-1.1,0-2,0.9-2,2
		s0.9,2,2,2h20.8c1.1,0,2-0.9,2-2S23.9,10.4,22.8,10.4z M22.8,18.9H2c-1.1,0-2,0.9-2,2s0.9,2,2,2h20.8c1.1,0,2-0.9,2-2
		S23.9,18.9,22.8,18.9z"/>
</g>
</svg>
